<?xml version="1.0" encoding="utf-8"?>
<!-- Generator: Adobe Illustrator 23.0.0, SVG Export Plug-In . SVG Version: 6.00 Build 0)  -->
<svg version="1.1"
	 id="svg2" inkscape:output_extension="org.inkscape.output.svg.inkscape" inkscape:version="0.46" sodipodi:docname="Adidas-logo.svg" sodipodi:version="0.32" xmlns:cc="http://creativecommons.org/ns#" xmlns:dc="http://purl.org/dc/elements/1.1/" xmlns:inkscape="http://www.inkscape.org/namespaces/inkscape" xmlns:rdf="http://www.w3.org/1999/02/22-rdf-syntax-ns#" xmlns:sodipodi="http://sodipodi.sourceforge.net/DTD/sodipodi-0.dtd" xmlns:svg="http://www.w3.org/2000/svg"
	 xmlns="http://www.w3.org/2000/svg" xmlns:xlink="http://www.w3.org/1999/xlink" x="0px" y="0px" viewBox="0 0 730 500"
	 style="enable-background:new 0 0 730 500;" xml:space="preserve">
<style type="text/css">
	.st0{fill:#FFFFFF;}
	.st1{fill-rule:evenodd;clip-rule:evenodd;fill:#FFFFFF;}
</style>
<defs>
	
	
		<inkscape:perspective  id="perspective10" inkscape:persp3d-origin="372.04724 : 350.78739 : 1" inkscape:vp_x="0 : 526.18109 : 1" inkscape:vp_y="0 : 1000 : 0" inkscape:vp_z="744.09448 : 526.18109 : 1" sodipodi:type="inkscape:persp3d">
		</inkscape:perspective>
	
		<inkscape:perspective  id="perspective2399" inkscape:persp3d-origin="358.69965 : 161.21951 : 1" inkscape:vp_x="0 : 241.82927 : 1" inkscape:vp_y="0 : 1000 : 0" inkscape:vp_z="717.39929 : 241.82927 : 1" sodipodi:type="inkscape:persp3d">
		</inkscape:perspective>
</defs>
<sodipodi:namedview  bordercolor="#666666" borderopacity="1.0" id="base" inkscape:current-layer="layer1" inkscape:cx="350" inkscape:cy="264.28571" inkscape:document-units="px" inkscape:pageopacity="0.0" inkscape:pageshadow="2" inkscape:window-height="781" inkscape:window-width="1280" inkscape:window-x="-4" inkscape:window-y="-4" inkscape:zoom="0.84501992" pagecolor="#ffffff" showgrid="false">
	</sodipodi:namedview>
<g id="layer1" transform="translate(-24.157502,-284.81863)" inkscape:groupmode="layer" inkscape:label="Ebene 1">
	<g id="g2402" transform="translate(-33.947634,-146.48574)" inkscape:label="Ebene 1">
		<g id="g3035">
			<path id="path2405" class="st0" d="M533.9,756.7L386.4,500.3l106-60.9l183.4,317.2H533.9"/>
			<path id="path2407" class="st0" d="M141,720.8l106-61.3l56.1,97.2H161.6L141,720.8"/>
			<path id="path2409" class="st0" d="M349,920.3h30.2v-122H349V920.3z"/>
			<path id="path2411" class="st0" d="M727,923.1c-33.7,0-54-17.4-55.1-42h31.8c0,7.7,4.8,18.9,25.4,19.3c13.7,0,20.2-8.1,20.2-14.1
				c-0.8-9.6-12.9-10.4-25.8-12.5c-12.9-2.1-23.9-4.4-31.8-8.5c-10.1-5.2-17-16.5-17-29.3c0-21.8,18.9-39.1,50.4-39.1
				c30.6,0,49.9,16,52,39.9h-30.7c-0.3-6.4-1.5-16.6-19.6-16.6c-12.2,0-20.3,2.5-21,11c0,12.5,25.4,11.7,45.1,16.9
				c18.9,4.8,31,16.6,31,33C781.8,911.5,757.3,923.1,727,923.1"/>
			<path id="path2413" class="st0" d="M762.1,761.5c7.3,0,13.8,6.2,13.8,13.6c0,7.3-6.6,13.4-13.8,13.4c-7.3,0-13.3-6.2-13.3-13.4
				C748.8,767.7,754.8,761.5,762.1,761.5z M762.1,759.4c-8.5,0-15.4,7-15.4,15.6c0,8.5,6.9,15.5,15.4,15.5c8.6,0,15.9-7,15.9-15.5
				C778,766.4,770.7,759.4,762.1,759.4z M765.8,775.6c1.5-0.5,2.6-2.2,2.6-4.4c0-3.3-2.6-4.8-5.8-4.8h-5.9v17.1h2.7v-7h3.7
				c2.1,0,2.6,1.6,2.6,4.9c0,1,0,1.5,0.5,2.1h2.6c-0.5-1.1-0.5-2.6-0.5-4.8C768.4,776,766.9,775.6,765.8,775.6z M759.5,769h3.7
				c1.5,0,2.6,1.1,2.6,2.7c0,1.6-2.2,2.2-3.7,2.2h-2.6V769"/>
			<path id="path2415" class="st0" d="M265.2,611.9l106-61.1l118.9,205.9H379.2v30.2H349v-30.3L265.2,611.9"/>
			<path id="path2417" class="st1" d="M268,923.1c-35.1,0-63.6-28.7-63.6-63.3c0-35.1,28.5-62.8,63.6-62.8
				c13.3,0,25.4,3.6,35.9,10.8v-51.1h30.2v163.5h-30.2v-8.1C293.3,919,281.3,923.1,268,923.1z M233.3,859.8
				c0,18.9,16.2,34.7,35.5,34.7c18.9,0,35.1-15.8,35.1-34.7c0-18.9-16.2-35.1-35.1-35.1C249.5,824.7,233.3,840.9,233.3,859.8"/>
			<path id="path2419" class="st1" d="M490.9,756.7h29.7v163.5h-29.7v-8.1c-10.1,6.9-22.6,11-36.3,11c-34.7,0-63.2-28.7-63.2-63.3
				c0-35.1,28.5-62.8,63.2-62.8c13.7,0,25.8,3.6,36.3,10.8V756.7z M420.7,859.8c0,18.9,16.2,34.7,34.7,34.7
				c19.3,0,35.5-15.8,35.5-34.7c0-18.9-16.2-35.1-35.5-35.1C436.9,824.7,420.7,840.9,420.7,859.8"/>
			<path id="path2421" class="st1" d="M594,923.1c-34.5,0-63.2-28.7-63.2-63.3c0-35.1,28.7-62.8,63.2-62.8
				c13.3,0,25.8,3.6,35.9,10.8v-9.7h30.2v122.1h-30.2v-8.1C619.8,919,607.7,923.1,594,923.1z M560.1,859.8
				c0,18.9,16.2,34.7,35.1,34.7c18.9,0,34.7-15.8,34.7-34.7c0-18.9-15.8-35.1-34.7-35.1C576.3,824.7,560.1,840.9,560.1,859.8"/>
			<path id="path2423" class="st1" d="M93.5,859.8c0,18.9,16.2,34.7,35.1,34.7c19.3,0,35.5-15.8,35.5-34.7
				c0-18.9-16.2-35.1-35.5-35.1C109.6,824.7,93.5,840.9,93.5,859.8z M127.7,923.1c-34.7,0-63.3-28.7-63.3-63.3
				c0-35.1,28.7-62.8,63.3-62.8c13.3,0,25.8,3.6,36.3,10.8v-9.7h29.7v122.1h-29.7v-8.1C153.9,919,141.5,923.1,127.7,923.1"/>
		</g>
	</g>
</g>
</svg>
