<?xml version="1.0" encoding="utf-8"?>
<!-- Generator: Adobe Illustrator 19.2.1, SVG Export Plug-In . SVG Version: 6.00 Build 0)  -->
<svg version="1.1" id="Layer_1" xmlns="http://www.w3.org/2000/svg" xmlns:xlink="http://www.w3.org/1999/xlink" x="0px" y="0px"
	 viewBox="0 0 387.8 294.9" style="enable-background:new 0 0 387.8 294.9;" xml:space="preserve">
<style type="text/css">
	.st0{fill:#1CCFC9;}
	.st1{fill:#D60057;}
</style>
<g>
	<g>
		<path class="st0" d="M104.6,171.7l29.7,0.2l0.4-86.5c0.2-24.9,18.8-36.1,37.3-36.1c18.9,0.1,37.6,11.5,37.4,36.5l-1.2,156.9
			c-0.2,24.9-18.8,36-37.2,36h-0.4c-18.6-0.1-37.2-11.5-37-36.5l0.1-4.1l-29-0.2"/>
		<path class="st0" d="M104.7,171.7L75,171.9l-0.4-86.5c-0.2-24.9-18.8-36.1-37.3-36.1C18.5,49.5-0.2,60.8,0,85.9l1.2,156.9
			c0.2,24.9,18.8,36,37.2,36h0.4c18.6-0.1,37.2-11.5,37-36.5l-0.1-4.1l29-0.2"/>
	</g>
	<rect x="90.1" y="188.3" class="st0" width="30.2" height="41.7"/>
</g>
<path class="st1" d="M284.7,182c-3.6,0-5.9-2.4-5.9-6.2v-39.6c0-11.4-3.7-13.6-10.1-13.6c-4.8,0-11.5,2.6-16,6.2v46.9
	c0,3.8-2.3,6.2-5.9,6.2h-7.3c-3.5,0-5.8-2.4-5.8-6V84.8c0-1.6,0.5-5.6,5.6-6.4c3-0.4,4.7-0.6,5.8-0.8c1.2-0.2,1.7-0.2,2-0.2
	c3.4,0,5.6,2.3,5.6,5.9v27.4c5.8-3.2,12.8-5.1,19.5-5.1c11.7,0,25.6,5,25.6,28.6v41.5c0,4.6-3,6.2-5.8,6.2H284.7z"/>
<g>
	<g>
		<g>
			<path class="st1" d="M321.9,182c3.8,0,6.2-2.5,6.2-6.5v-62c0-3.9-2.4-6.3-6.2-6.3h-6.5c-3.8,0-6.3,2.5-6.3,6.3v62
				c0,3.9,2.5,6.5,6.3,6.5H321.9z"/>
		</g>
		<g>
			<path class="st1" d="M329,93.4v-3.2c0-4.8-3.9-8.6-8.6-8.6h-3.6c-4.8,0-8.6,3.9-8.6,8.6v3.2c0,4.8,3.9,8.6,8.6,8.6h3.6
				C325.1,102,329,98.2,329,93.4z"/>
		</g>
	</g>
</g>
<path class="st1" d="M383.8,180.3c4-1.7,4.3-4.6,3.9-6.9l-1.2-4.7c-0.8-2.3-2.8-3.8-5.1-3.8c-0.7,0-1.4,0.1-1.8,0.3
	c-1.6,0.5-4.9,1.5-7.8,1.5c-2.4,0-4.1-0.6-5.1-1.6c-1.3-1.4-1.5-4.2-1.5-8.3v-34.4h12.9c4.1,0,5.6-2.8,5.6-5.3v-4.8
	c0-2.6-1.4-5.3-5.5-5.3h-13.1V93.1c0-3.6-2.3-6-5.6-6H359c-0.2,0-0.3,0-0.5,0l-6.9,1c-3.6,0.6-5.4,2.6-5.4,6.3v12.5h-4.5
	c-3.2,0-5.3,2.1-5.3,5.5v4.4c0,3.8,1.8,5.6,5.6,5.6h4.2v33.3c0,9.3,0.4,15.8,5.3,21.2c3.7,4,10.2,6.3,17.9,6.3
	C374.7,183.1,380.3,181.7,383.8,180.3z"/>
<g>
	<path class="st1" d="M104.7,0c23.7,0,42.9,19.8,42.9,44.1c0,0.9-0.1,1.9-0.1,2.8l-7.7,113.3c0,0.1-0.2,1.3-0.2,1.5
		c-2.4,17.5-16.7,30.9-34.9,30.9s-32.5-13.4-34.9-30.9c0-0.2-0.2-1.3-0.2-1.5L61.9,46.9c0,0-0.1-1.8-0.1-2.8
		C61.8,19.8,80.9,0,104.7,0z"/>
	<path class="st1" d="M111.1,294.9H98.3c-17,0-30.7-13.7-30.7-30.7v-11.3c0-17,13.7-30.7,30.7-30.7h12.8c17,0,30.7,13.7,30.7,30.7
		v11.3C141.8,281.1,128,294.9,111.1,294.9z"/>
</g>
<path class="st1" d="M263.9,274.1c0,2-0.7,2.8-2.6,2.8h-5.2c-2.1,0-2.8-0.8-2.8-2.8v-66.7l-10,5.3c-0.6,0.4-1.2,0.6-1.7,0.6
	c-0.6,0-1.2-0.2-1.5-0.9l-2.4-3.9c-0.2-0.5-0.5-0.9-0.5-1.3c0-0.7,0.5-1.4,1.5-2l14.6-8.3c1.4-0.9,2.4-1.1,4.4-1.1h3.8
	c1.7,0,2.4,0.9,2.4,2.7V274.1z M298.7,278.1c-21.3,0-27.8-23-27.8-41.7c0-18.6,7.1-42.1,28.2-42.1c21.3,0,27.7,23,27.7,41.7
	S320,278.1,298.7,278.1z M298.9,203.5c-13.4,0-16.6,18.9-16.6,32.6c0,13.9,3.1,32.6,16.5,32.6c13.4,0,16.5-18.9,16.5-32.6
	C315.3,222.2,312,203.5,298.9,203.5z"/>
<path class="st1" d="M378,252.2c0,4.2-0.7,7.8-2.2,11c-1.5,3.2-3.5,5.9-6.1,8.1c-2.6,2.2-5.6,3.9-9.2,5.1c-3.5,1.1-7.3,1.7-11.4,1.7
	c-3.2,0-6.4-0.4-9.6-1.2c-3.2-0.8-6.3-2-9.3-3.6c-1.2-0.6-1.8-1.3-1.8-1.9c0-0.4,0.1-0.8,0.4-1.3l1.9-4.4c0.3-0.9,0.8-1.3,1.4-1.3
	c0.4,0,1,0.2,1.8,0.6c2.8,1.4,5.5,2.4,8,3.1c2.5,0.6,5.2,0.9,8,0.9c2.3,0,4.5-0.4,6.5-1.1c2.1-0.7,3.9-1.7,5.5-3.1
	c1.6-1.3,2.8-3,3.7-5.1c0.9-2,1.4-4.4,1.4-7.2c0-2.9-0.5-5.4-1.4-7.5c-0.9-2.1-2.1-3.9-3.7-5.3c-2.1-1.9-4.7-3.2-7.8-3.9
	c-3.1-0.7-6.5-1.1-10.3-1.1h-7.4c-2.4,0-3.5-1.2-3.5-3.5v-32.7c0-1.8,0.9-2.7,2.6-2.7h35.9c0.9,0,1.5,0.2,2,0.5
	c0.5,0.4,0.7,1,0.7,1.9v4.1c0,0.9-0.2,1.5-0.5,1.8c-0.3,0.4-1,0.5-2,0.5h-28.1v21.9h3.5c4.2,0,8.1,0.5,11.9,1.4s7.1,2.5,9.9,4.5
	c2.9,2.1,5.1,4.7,6.8,7.9C377.1,243.7,378,247.6,378,252.2z"/>
</svg>
